<svg width="512" height="512" viewBox="0 0 512 512" xmlns="http://www.w3.org/2000/svg">
  <!-- Background -->
  <rect width="512" height="512" fill="#0a0f1a" rx="64"/>
  
  <!-- Outer Quantum Ring -->
  <circle cx="256" cy="256" r="224" fill="none" stroke="#00ffff" stroke-width="16" opacity="0.8"/>
  
  <!-- Middle Ring -->
  <circle cx="256" cy="256" r="160" fill="none" stroke="#ff00ff" stroke-width="16" opacity="0.9"/>
  
  <!-- Inner Ring -->
  <circle cx="256" cy="256" r="96" fill="none" stroke="#00ff00" stroke-width="16" opacity="1"/>
  
  <!-- Central Quantum Symbol -->
  <path d="M192 256 Q256 192 320 256 Q256 320 192 256" fill="#00ffff" stroke="#00ffff" stroke-width="8"/>
  
  <!-- Quantum Dots -->
  <circle cx="192" cy="256" r="16" fill="#00ffff"/>
  <circle cx="320" cy="256" r="16" fill="#ff00ff"/>
  <circle cx="256" cy="192" r="16" fill="#00ff00"/>
  <circle cx="256" cy="320" r="16" fill="#ffff00"/>
  
  <!-- Additional Quantum Particles -->
  <circle cx="256" cy="96" r="8" fill="#00ffff" opacity="0.7"/>
  <circle cx="416" cy="256" r="8" fill="#ff00ff" opacity="0.7"/>
  <circle cx="256" cy="416" r="8" fill="#00ff00" opacity="0.7"/>
  <circle cx="96" cy="256" r="8" fill="#ffff00" opacity="0.7"/>
  
  <!-- Corner Particles -->
  <circle cx="96" cy="96" r="6" fill="#00ffff" opacity="0.5"/>
  <circle cx="416" cy="96" r="6" fill="#ff00ff" opacity="0.5"/>
  <circle cx="96" cy="416" r="6" fill="#00ff00" opacity="0.5"/>
  <circle cx="416" cy="416" r="6" fill="#ffff00" opacity="0.5"/>
</svg>
